<svg xmlns="http://www.w3.org/2000/svg" width="200" height="48" viewBox="0 0 200 48">
  <g id="Khusm" transform="translate(0 0.004)">
    <path id="Path_7401" data-name="Path 7401" d="M.02,23.964C.02,16.343.035,8.716,0,1.095,0,.239.211-.022,1.09,0q3.3.1,6.6,0C8.593-.027,8.859.2,8.859,1.13c-.035,8.9-.02,17.8-.02,26.7,0,3.39.025,6.785-.02,10.175-.01.806.191.911.969.816A38.476,38.476,0,0,0,42.323,8.846,35,35,0,0,0,43.176.935c-.02-.706.181-.941.914-.926C46.325.053,48.565.073,50.805,0c.944-.03,1.246.185,1.22,1.187A46.284,46.284,0,0,1,42.242,29.3,47.092,47.092,0,0,1,12.857,47.239,62.55,62.55,0,0,1,.693,47.99c-.884-.005-.668-.586-.668-1.047Q.01,38.628.02,30.309V23.964Z" transform="translate(0 0)" fill="#56a9a2"/>
    <path id="Path_7402" data-name="Path 7402" d="M36.483,18.8a9.678,9.678,0,1,1-9.733,9.643A9.62,9.62,0,0,1,36.483,18.8Z" transform="translate(-13.315 -9.406)" fill="#56a9a2"/>
    <path id="Path_7403" data-name="Path 7403" d="M343.691,39.627a5.6,5.6,0,0,0,.352-.437A8.909,8.909,0,0,1,353.71,35.3c3.536.653,5.65,3.028,6.825,6.3a13.532,13.532,0,0,1,.819,4.5c.015,3.732-.01,7.458.03,11.19.01.7-.206.834-.859.834-2.421,0-2.421.025-2.421-2.35V46.678a10.054,10.054,0,0,0-1.471-5.64,5.858,5.858,0,0,0-9.738-.045,10.541,10.541,0,0,0-1.507,5.966c-.02,3.4-.025,6.8.015,10.2.01.743-.156.989-.949.979-2.426-.03-2.426.005-2.426-2.35,0-3.109.01-6.218,0-9.326a9.951,9.951,0,0,0-1.426-5.434,5.861,5.861,0,0,0-9.738-.04,8.644,8.644,0,0,0-1.426,4.656q-.09,5.7-.035,11.406c0,.849-.2,1.115-1.08,1.09-2.24-.055-2.245-.01-2.245-2.195q0-4.61,0-9.216a14.3,14.3,0,0,1,1.763-7.142c3.224-5.761,11.958-6.087,15.519-.447.1.146.206.281.347.477Z" transform="translate(-161.385 -17.565)" fill="#212121"/>
    <path id="Path_7404" data-name="Path 7404" d="M156.852,18.732c-4.54,5.414-8.9,10.612-13.359,15.926,7.232,2.707,10.321,8.99,13.761,15.308h-3.4c-.492,0-.542-.447-.7-.743-.929-1.743-1.984-3.405-3.059-5.062a16.441,16.441,0,0,0-12.033-7.6c-1.984-.281-1.984-.3-1.984,1.723,0,3.551-.02,7.1.015,10.647.01.768-.116,1.08-.994,1.06-2.28-.05-2.28,0-2.28-2.265,0-9.291.015-18.582-.02-27.874,0-.894.181-1.18,1.12-1.145,2.16.075,2.16.02,2.16,2.2,0,3.732.03,7.463-.025,11.195-.015.834.291,1.11,1.03,1.135a.989.989,0,0,1,.326.035c2.17.934,3.385-.2,4.666-1.828,3.2-4.048,6.584-7.95,9.864-11.938a1.792,1.792,0,0,1,1.657-.788c.984.065,1.974.015,3.259.015Z" transform="translate(-65.75 -9.391)" fill="#212121"/>
    <path id="Path_7405" data-name="Path 7405" d="M190.014,30.535c4.133-4.636,9.849-4.485,13.47-1.175a11.135,11.135,0,0,1,3.526,7.006c.472,3.711.136,7.453.2,11.18.045,2.456.01,2.416-2.426,2.446-.829.01-.929-.3-.919-1q.053-5.16.005-10.316A8.8,8.8,0,0,0,201.315,32c-3.435-3.214-8.739-1.813-10.587,2.747a10.528,10.528,0,0,0-.713,4.073c.015,3.4-.02,6.805.025,10.205.01.778-.221.969-.979.964-2.3-.025-2.3.005-2.3-2.235,0-9.291.01-18.582-.02-27.879,0-.859.121-1.2,1.1-1.165,2.18.08,2.185.02,2.185,2.18v9.648Z" transform="translate(-92.467 -9.392)" fill="#212121"/>
    <path id="Path_7406" data-name="Path 7406" d="M292.782,57.631c-2.712-.11-5.324-.532-7.433-2.466a7.149,7.149,0,0,1-2.17-4.2c-.11-.643-.04-1.1.793-.959a2,2,0,0,0,.547,0c1.11-.11,2-.105,2.18,1.426a3.261,3.261,0,0,0,2.19,2.436,9.367,9.367,0,0,0,6.338.417,3.734,3.734,0,0,0,2.029-1.431,2.732,2.732,0,0,0-.7-4.1,12.343,12.343,0,0,0-4-1.456,30.753,30.753,0,0,1-5.037-1.507,5.432,5.432,0,0,1-3.676-4.877,5.6,5.6,0,0,1,3.37-5.57,10.615,10.615,0,0,1,10.13.085,7.219,7.219,0,0,1,3.782,6.062c.045.427-.055.623-.5.6-.256-.015-.512,0-.768,0a4.736,4.736,0,0,1-1.738-.07c-.593-.251-.316-1.04-.512-1.572a4.355,4.355,0,0,0-2.431-2.677,7.078,7.078,0,0,0-6.062.08,2.793,2.793,0,0,0,.03,5.334,27.73,27.73,0,0,0,4.942,1.446,21.62,21.62,0,0,1,3.44,1.1,5.512,5.512,0,0,1,3.681,5,5.929,5.929,0,0,1-3.34,5.73,9.765,9.765,0,0,1-5.088,1.155Z" transform="translate(-140.211 -17.071)" fill="#212121"/>
    <path id="Path_7407" data-name="Path 7407" d="M89.136,73.593a7.488,7.488,0,0,1-14.976-.05A7.579,7.579,0,0,1,81.688,66.1a7.5,7.5,0,0,1,7.443,7.493Z" transform="translate(-36.727 -33.046)" fill="#56a9a2"/>
    <path id="Path_7408" data-name="Path 7408" d="M235.849,42.025c0-2.315.02-4.219-.01-6.117-.01-.613.075-.889.814-.889,2.526-.005,2.526-.04,2.526,2.461,0,3.033-.035,6.072.01,9.105a8.452,8.452,0,0,0,2.657,6.509c3.571,3.164,8.739,1.7,10.512-2.933a10.238,10.238,0,0,0,.688-3.747c-.01-3.475.02-6.946-.025-10.421-.01-.763.181-.979.959-.969,2.335.035,2.371,0,2.33,2.325-.07,3.762.276,7.538-.2,11.285-.6,4.741-4.1,8.673-8.106,9.256-5.615.814-10.2-2.29-11.7-7.87-.743-2.777-.326-5.6-.457-7.99Z" transform="translate(-116.779 -17.532)" fill="#212121"/>
  </g>
</svg>